<svg width="48" height="48" viewBox="0 0 48 48" fill="none" xmlns="http://www.w3.org/2000/svg">
<path d="M11.2719 25.4139L14.9279 29.0719L17.7599 26.2399L14.0999 22.5859L16.9279 19.7579L20.5859 23.4139L23.4139 20.5859L19.7599 16.9279L22.5879 14.0999L26.2399 17.7599L29.0699 14.9299L25.4119 11.2739L31.0699 5.61789C31.445 5.24295 31.9536 5.03232 32.4839 5.03232C33.0142 5.03232 33.5229 5.24295 33.8979 5.61789L42.3819 14.1019C42.7569 14.4769 42.9675 14.9856 42.9675 15.5159C42.9675 16.0462 42.7569 16.5548 42.3819 16.9299L16.9279 42.3839C16.5529 42.7588 16.0442 42.9695 15.5139 42.9695C14.9836 42.9695 14.475 42.7588 14.0999 42.3839L5.61592 33.8999C5.24098 33.5248 5.03034 33.0162 5.03034 32.4859C5.03034 31.9556 5.24098 31.4469 5.61592 31.0719L11.2719 25.4139V25.4139ZM28.2419 36.7259L36.7279 28.2419L41.9999 33.5139V41.9999H33.5159L28.2419 36.7259ZM11.2719 19.7559L5.61392 14.0999C5.42796 13.9141 5.28045 13.6936 5.1798 13.4508C5.07915 13.208 5.02734 12.9477 5.02734 12.6849C5.02734 12.4221 5.07915 12.1618 5.1798 11.919C5.28045 11.6762 5.42796 11.4556 5.61392 11.2699L11.2719 5.61389C11.647 5.23895 12.1556 5.02832 12.6859 5.02832C13.2162 5.02832 13.7249 5.23895 14.0999 5.61389L19.7599 11.2699L11.2719 19.7559Z" fill="#7768FF"/>
</svg>
