<svg width="48" height="48" viewBox="0 0 48 48" fill="none" xmlns="http://www.w3.org/2000/svg">
<path d="M5.76001 36.1079C8.51238 23.9294 14.3932 12.6792 22.822 3.46795C22.9719 3.3049 23.154 3.17473 23.3567 3.0857C23.5595 2.99666 23.7785 2.95068 24 2.95068C24.2215 2.95068 24.4405 2.99666 24.6433 3.0857C24.8461 3.17473 25.0281 3.3049 25.178 3.46795C25.51 3.82795 25.786 4.13195 26.004 4.37795C33.9971 13.4217 39.5812 24.3347 42.24 36.1079C37.958 37.0099 33.56 37.6019 29.072 37.8559L24.894 46.2119C24.8109 46.3778 24.6832 46.5173 24.5253 46.6148C24.3675 46.7123 24.1856 46.7639 24 46.7639C23.8145 46.7639 23.6326 46.7123 23.4747 46.6148C23.3168 46.5173 23.1891 46.3778 23.106 46.2119L18.928 37.8559C14.5009 37.6057 10.0991 37.0214 5.76001 36.1079V36.1079ZM24 29.9999C25.5913 29.9999 27.1174 29.3678 28.2427 28.2426C29.3679 27.1174 30 25.5912 30 23.9999C30 22.4086 29.3679 20.8825 28.2427 19.7573C27.1174 18.6321 25.5913 17.9999 24 17.9999C22.4087 17.9999 20.8826 18.6321 19.7574 19.7573C18.6321 20.8825 18 22.4086 18 23.9999C18 25.5912 18.6321 27.1174 19.7574 28.2426C20.8826 29.3678 22.4087 29.9999 24 29.9999V29.9999Z" fill="#7768FF"/>
</svg>
