<svg width="65" height="64" viewBox="0 0 65 64" fill="none" xmlns="http://www.w3.org/2000/svg">
<path d="M47.0328 60.6666C44.0399 60.6666 40.8881 59.9466 37.6304 58.5599C34.4521 57.1999 31.2473 55.3333 28.1219 53.0666C25.0231 50.7733 22.0302 48.2133 19.1962 45.4133C16.3887 42.5599 13.846 39.5466 11.5947 36.4533C9.31696 33.2533 7.48944 30.0533 6.19163 26.9599C4.81437 23.6533 4.12573 20.4533 4.12573 17.4399C4.12573 15.3599 4.49653 13.3866 5.21165 11.5466C5.95326 9.65325 7.14512 7.89325 8.76076 6.37325C10.8002 4.34659 13.1309 3.33325 15.6206 3.33325C16.6535 3.33325 17.713 3.57325 18.6135 3.99992C19.6465 4.47992 20.5205 5.19992 21.1561 6.15992L27.3009 14.8799C27.8571 15.6533 28.2808 16.3999 28.5722 17.1466C28.9165 17.9466 29.1019 18.7466 29.1019 19.5199C29.1019 20.5333 28.8106 21.5199 28.2544 22.4533C27.8571 23.1733 27.2479 23.9466 26.4798 24.7199L24.6788 26.6133C24.7053 26.6933 24.7317 26.7466 24.7582 26.7999C25.0761 27.3599 25.7117 28.3199 26.9301 29.7599C28.2279 31.2533 29.4462 32.6133 30.6646 33.8666C32.2272 35.4133 33.525 36.6399 34.7434 37.6533C36.2531 38.9333 37.2331 39.5733 37.8158 39.8666L37.7628 39.9999L39.6963 38.0799C40.5173 37.2533 41.3119 36.6399 42.08 36.2399C43.5367 35.3333 45.3907 35.1733 47.2447 35.9466C47.9334 36.2399 48.675 36.6399 49.4695 37.1999L58.2629 43.4933C59.2428 44.1599 59.9579 45.0133 60.3817 46.0266C60.779 47.0399 60.9644 47.9733 60.9644 48.9066C60.9644 50.1866 60.6731 51.4666 60.1169 52.6666C59.5607 53.8666 58.872 54.9066 57.998 55.8666C56.4883 57.5466 54.8462 58.7466 52.9392 59.5199C51.1117 60.2666 49.1252 60.6666 47.0328 60.6666ZM15.6206 7.33325C14.1639 7.33325 12.8131 7.97325 11.5153 9.25325C10.2969 10.3999 9.44939 11.6533 8.91967 13.0133C8.36347 14.3999 8.09861 15.8666 8.09861 17.4399C8.09861 19.9199 8.6813 22.6133 9.84668 25.3866C11.0385 28.2133 12.7072 31.1466 14.826 34.0799C16.9449 37.0133 19.3551 39.8666 22.0037 42.5599C24.6523 45.1999 27.5128 47.6533 30.4527 49.8133C33.3132 51.9199 36.2531 53.6266 39.1665 54.8533C43.6956 56.7999 47.9334 57.2533 51.4295 55.7866C52.7803 55.2266 53.9721 54.3733 55.0581 53.1466C55.6672 52.4799 56.144 51.7599 56.5413 50.9066C56.8591 50.2399 57.018 49.5466 57.018 48.8533C57.018 48.4266 56.9386 47.9999 56.7267 47.5199C56.6472 47.3599 56.4883 47.0666 55.9851 46.7199L47.1918 40.4266C46.662 40.0533 46.1853 39.7866 45.735 39.5999C45.1523 39.3599 44.914 39.1199 44.0135 39.6799C43.4837 39.9466 43.007 40.3466 42.4773 40.8799L40.4643 42.8799C39.4314 43.8933 37.8422 44.1333 36.6239 43.6799L35.9088 43.3599C34.8229 42.7733 33.5515 41.8666 32.1478 40.6666C30.8765 39.5733 29.4992 38.2933 27.8306 36.6399C26.5328 35.3066 25.235 33.8933 23.8842 32.3199C22.6394 30.8533 21.7388 29.5999 21.1826 28.5599L20.8648 27.7599C20.7059 27.1466 20.6529 26.7999 20.6529 26.4266C20.6529 25.4666 20.9972 24.6133 21.6594 23.9466L23.6458 21.8666C24.1755 21.3333 24.5728 20.8266 24.8377 20.3733C25.0496 20.0266 25.129 19.7333 25.129 19.4666C25.129 19.2533 25.0496 18.9333 24.9171 18.6133C24.7317 18.1866 24.4404 17.7066 24.0696 17.1999L17.9249 8.45325C17.66 8.07992 17.3422 7.81325 16.9449 7.62659C16.5211 7.43992 16.0709 7.33325 15.6206 7.33325ZM37.7628 40.0266L37.339 41.8399L38.0541 39.9733C37.9217 39.9466 37.8158 39.9733 37.7628 40.0266Z" fill="#4F42C9"/>
<path d="M49.8139 26.0001C48.7279 26.0001 47.8274 25.0934 47.8274 24.0001C47.8274 23.0401 46.8739 21.0401 45.2848 19.3334C43.7221 17.6534 42.0005 16.6667 40.5438 16.6667C39.4579 16.6667 38.5574 15.7601 38.5574 14.6667C38.5574 13.5734 39.4579 12.6667 40.5438 12.6667C43.1129 12.6667 45.8145 14.0534 48.1717 16.5867C50.3701 18.9601 51.8003 21.8667 51.8003 24.0001C51.8003 25.0934 50.8998 26.0001 49.8139 26.0001Z" fill="#4F42C9"/>
<path d="M59.0839 25.9999C57.998 25.9999 57.0975 25.0933 57.0975 23.9999C57.0975 14.7999 49.6814 7.33325 40.5438 7.33325C39.4579 7.33325 38.5574 6.42659 38.5574 5.33325C38.5574 4.23992 39.4579 3.33325 40.5438 3.33325C51.8533 3.33325 61.0704 12.6133 61.0704 23.9999C61.0704 25.0933 60.1698 25.9999 59.0839 25.9999Z" fill="#4F42C9"/>
</svg>
