<svg width="65" height="64" viewBox="0 0 65 64" fill="none" xmlns="http://www.w3.org/2000/svg">
<path d="M32.3808 37.7867C26.7008 37.7867 22.0608 33.1733 22.0608 27.4667C22.0608 21.76 26.7008 17.1733 32.3808 17.1733C38.0608 17.1733 42.7008 21.7867 42.7008 27.4933C42.7008 33.2 38.0608 37.7867 32.3808 37.7867ZM32.3808 21.1733C28.9141 21.1733 26.0608 24 26.0608 27.4933C26.0608 30.9867 28.8875 33.8133 32.3808 33.8133C35.8741 33.8133 38.7008 30.9867 38.7008 27.4933C38.7008 24 35.8475 21.1733 32.3808 21.1733Z" fill="#4F42C9"/>
<path d="M32.3808 60.6933C28.4342 60.6933 24.4608 59.1999 21.3675 56.2399C13.5008 48.6666 4.80751 36.5866 8.08751 22.2133C11.0475 9.17325 22.4342 3.33325 32.3808 3.33325C32.3808 3.33325 32.3808 3.33325 32.4075 3.33325C42.3542 3.33325 53.7408 9.17325 56.7008 22.2399C59.9542 36.6133 51.2608 48.6666 43.3942 56.2399C40.3008 59.1999 36.3275 60.6933 32.3808 60.6933ZM32.3808 7.33325C24.6208 7.33325 14.6475 11.4666 12.0075 23.0933C9.12751 35.6533 17.0208 46.4799 24.1675 53.3333C28.7808 57.7866 36.0075 57.7866 40.6208 53.3333C47.7408 46.4799 55.6342 35.6533 52.8075 23.0933C50.1408 11.4666 40.1408 7.33325 32.3808 7.33325Z" fill="#4F42C9"/>
</svg>
