<svg width="63" height="64" viewBox="0 0 63 64" fill="none" xmlns="http://www.w3.org/2000/svg">
<path d="M44.4937 56.6666H18.3209C8.76778 56.6666 3.27148 51.0666 3.27148 41.3333V22.6666C3.27148 12.9333 8.76778 7.33325 18.3209 7.33325H36.6419C37.7149 7.33325 38.6048 8.23992 38.6048 9.33325C38.6048 10.4266 37.7149 11.3333 36.6419 11.3333H18.3209C10.8354 11.3333 7.19741 15.0399 7.19741 22.6666V41.3333C7.19741 48.9599 10.8354 52.6666 18.3209 52.6666H44.4937C51.9791 52.6666 55.6172 48.9599 55.6172 41.3333V27.9999C55.6172 26.9066 56.507 25.9999 57.5801 25.9999C58.6532 25.9999 59.5431 26.9066 59.5431 27.9999V41.3333C59.5431 51.0666 54.0468 56.6666 44.4937 56.6666Z" fill="#4F42C9"/>
<path d="M31.4068 34.3201C29.2083 34.3201 26.9836 33.6268 25.2824 32.2135L17.0903 25.5468C16.2527 24.8535 16.0957 23.6001 16.7762 22.7468C17.4567 21.8935 18.6868 21.7335 19.5243 22.4268L27.7164 29.0935C29.7056 30.7201 33.0819 30.7201 35.071 29.0935L38.1594 26.5868C38.9969 25.8935 40.2532 26.0268 40.9076 26.9068C41.5881 27.7601 41.4572 29.0401 40.5935 29.7068L37.505 32.2135C35.83 33.6268 33.6053 34.3201 31.4068 34.3201Z" fill="#4F42C9"/>
<path d="M51.0369 23.3333C46.352 23.3333 42.5308 19.44 42.5308 14.6667C42.5308 9.89333 46.352 6 51.0369 6C55.7219 6 59.5431 9.89333 59.5431 14.6667C59.5431 19.44 55.7219 23.3333 51.0369 23.3333ZM51.0369 10C48.5243 10 46.4567 12.1067 46.4567 14.6667C46.4567 17.2267 48.5243 19.3333 51.0369 19.3333C53.5495 19.3333 55.6172 17.2267 55.6172 14.6667C55.6172 12.1067 53.5495 10 51.0369 10Z" fill="#4F42C9"/>
</svg>
