<svg width="42" height="42" viewBox="0 0 42 42" fill="none" xmlns="http://www.w3.org/2000/svg">
<circle cx="21" cy="21" r="21" fill="#E81E54"/>
<path d="M22.3701 11.0941C19.9774 10.7649 17.5463 11.3126 15.5259 12.636C13.5055 13.9594 12.0321 15.9692 11.3779 18.2941C10.7236 20.6191 10.9327 23.1023 11.9665 25.2851C13.0002 27.468 14.7889 29.2031 17.0021 30.1701C16.9422 29.4019 16.9972 28.6291 17.1651 27.8771C17.3501 27.0381 18.4611 22.4141 18.4611 22.4141C18.2399 21.9182 18.1293 21.38 18.1371 20.8371C18.1371 19.3521 18.9941 18.2441 20.0601 18.2441C20.2516 18.2413 20.4415 18.2798 20.6168 18.3569C20.7921 18.434 20.9487 18.548 21.076 18.6911C21.2034 18.8342 21.2984 19.003 21.3547 19.1861C21.4109 19.3691 21.4271 19.5622 21.4021 19.7521C21.4021 20.6521 20.8241 22.0141 20.5221 23.2921C20.4624 23.5265 20.4586 23.7716 20.511 24.0077C20.5635 24.2438 20.6706 24.4643 20.8239 24.6514C20.9771 24.8385 21.1722 24.987 21.3933 25.0849C21.6145 25.1828 21.8555 25.2274 22.0971 25.2151C23.9951 25.2151 25.2671 22.7841 25.2671 19.9141C25.2671 17.7141 23.8101 16.0661 21.1241 16.0661C20.4815 16.0411 19.8405 16.147 19.24 16.3773C18.6396 16.6077 18.0922 16.9576 17.6311 17.406C17.1701 17.8543 16.805 18.3917 16.5579 18.9855C16.3109 19.5792 16.1871 20.217 16.1941 20.8601C16.1655 21.5734 16.3956 22.273 16.8421 22.8301C16.9255 22.8924 16.9864 22.9801 17.0157 23.08C17.0449 23.1799 17.0408 23.2867 17.0041 23.3841C16.9581 23.5681 16.8421 24.0071 16.7961 24.1681C16.7865 24.2227 16.7643 24.2743 16.7311 24.3187C16.698 24.3631 16.6548 24.3991 16.6052 24.4238C16.5556 24.4486 16.5009 24.4613 16.4455 24.461C16.39 24.4607 16.3354 24.4473 16.2861 24.4221C14.9021 23.8681 14.2501 22.3451 14.2501 20.6061C14.2501 17.7591 16.6341 14.3511 21.4041 14.3511C25.2001 14.3511 27.7241 17.1281 27.7241 20.0981C27.7241 24.0071 25.5471 26.9461 22.3301 26.9461C21.8493 26.9614 21.3724 26.8553 20.9434 26.6375C20.5145 26.4198 20.1474 26.0973 19.8761 25.7001C19.8761 25.7001 19.2981 28.0161 19.1841 28.4541C18.9514 29.2108 18.608 29.9289 18.1651 30.5851C19.0881 30.8651 20.0471 31.0051 21.0111 31.0011C22.3247 31.0021 23.6256 30.7441 24.8393 30.2417C26.053 29.7392 27.1556 29.0024 28.0842 28.0732C29.0127 27.144 29.7488 26.0408 30.2504 24.8268C30.7519 23.6127 31.0091 22.3117 31.0071 20.9981C31.0059 18.5831 30.1309 16.2501 28.5437 14.4299C26.9566 12.6096 24.7644 11.4251 22.3721 11.0951L22.3701 11.0941Z" fill="white"/>
</svg>
