<svg width="42" height="42" viewBox="0 0 42 42" fill="none" xmlns="http://www.w3.org/2000/svg">
<circle cx="21" cy="21" r="21" fill="#1CB8FF"/>
<path d="M21 31C15.477 31 11 26.523 11 21C11 15.477 15.477 11 21 11C26.523 11 31 15.477 31 21C31 26.523 26.523 31 21 31ZM17.89 22.17L17.903 22.163L18.773 25.033C18.885 25.344 19.039 25.4 19.226 25.374C19.414 25.349 19.513 25.248 19.636 25.13L20.824 23.982L23.374 25.87C23.84 26.127 24.175 25.994 24.291 25.438L25.948 17.616C26.131 16.888 25.811 16.596 25.246 16.828L15.513 20.588C14.849 20.854 14.853 21.226 15.393 21.391L17.89 22.171V22.17Z" fill="white"/>
</svg>
