<svg width="22" height="21" viewBox="0 0 22 21" fill="none" xmlns="http://www.w3.org/2000/svg">
<path d="M8.4 13H2C1.46957 13 0.96086 12.7893 0.585788 12.4142C0.210715 12.0391 1.0643e-06 11.5304 1.0643e-06 11V8.896C-0.000268556 8.63464 0.050692 8.37576 0.150001 8.134L3.246 0.62C3.32128 0.436753 3.4493 0.279995 3.6138 0.169612C3.77831 0.0592292 3.97189 0.00019547 4.17 0H21C21.2652 0 21.5196 0.105357 21.7071 0.292893C21.8946 0.48043 22 0.734784 22 1V11C22 11.2652 21.8946 11.5196 21.7071 11.7071C21.5196 11.8946 21.2652 12 21 12H17.518C17.3579 12 17.2001 12.0384 17.058 12.112C16.9158 12.1856 16.7934 12.2922 16.701 12.423L11.248 20.149C11.1791 20.2467 11.0774 20.3164 10.9615 20.3456C10.8455 20.3748 10.723 20.3614 10.616 20.308L8.802 19.4C8.2915 19.1448 7.88367 18.7227 7.64627 18.2037C7.40887 17.6847 7.3562 17.1001 7.497 16.547L8.4 13ZM16 10.412V2H4.84L2 8.896V11H8.4C8.7046 11 9.00517 11.0697 9.27877 11.2035C9.55237 11.3374 9.79178 11.532 9.97873 11.7725C10.1657 12.013 10.2952 12.293 10.3575 12.5912C10.4197 12.8893 10.4131 13.1978 10.338 13.493L9.435 17.041C9.40674 17.1517 9.41722 17.2687 9.46471 17.3726C9.51219 17.4765 9.59382 17.561 9.696 17.612L10.357 17.942L15.067 11.27C15.317 10.916 15.637 10.626 16 10.412ZM18 10H20V2H18V10Z" fill="#E3ECFF"/>
</svg>
