<svg width="42" height="42" viewBox="0 0 42 42" fill="none" xmlns="http://www.w3.org/2000/svg">
<circle cx="21" cy="21" r="21" fill="#43BAED"/>
<path d="M31.1623 14.6559C30.3989 14.9936 29.5893 15.2154 28.7603 15.3139C29.634 14.7914 30.288 13.9689 30.6003 12.9999C29.7803 13.4879 28.8813 13.8299 27.9443 14.0149C27.3149 13.3415 26.4807 12.8949 25.5713 12.7445C24.6618 12.5941 23.7282 12.7484 22.9156 13.1834C22.1029 13.6183 21.4567 14.3096 21.0774 15.1497C20.6981 15.9898 20.607 16.9317 20.8183 17.8289C19.1554 17.7456 17.5286 17.3134 16.0436 16.5606C14.5585 15.8077 13.2484 14.751 12.1983 13.4589C11.8266 14.0974 11.6313 14.8232 11.6323 15.5619C11.6323 17.0119 12.3703 18.2929 13.4923 19.0429C12.8283 19.022 12.1789 18.8427 11.5983 18.5199V18.5719C11.5985 19.5376 11.9327 20.4735 12.5441 21.221C13.1556 21.9684 14.0068 22.4814 14.9533 22.6729C14.3369 22.84 13.6906 22.8646 13.0633 22.7449C13.3302 23.5762 13.8503 24.3031 14.5509 24.824C15.2515 25.3449 16.0974 25.6337 16.9703 25.6499C16.1028 26.3313 15.1095 26.8349 14.0472 27.1321C12.9849 27.4293 11.8744 27.5142 10.7793 27.3819C12.691 28.6114 14.9164 29.264 17.1893 29.2619C24.8823 29.2619 29.0893 22.8889 29.0893 17.3619C29.0893 17.1819 29.0843 16.9999 29.0763 16.8219C29.8952 16.2301 30.6019 15.4969 31.1633 14.6569L31.1623 14.6559Z" fill="white"/>
</svg>
