<svg width="42" height="42" viewBox="0 0 42 42" fill="none" xmlns="http://www.w3.org/2000/svg">
<circle cx="21" cy="21" r="21" fill="#19B77E"/>
<path d="M11.004 31L12.356 26.032C11.4652 24.5049 10.9971 22.768 11 21C11 15.477 15.477 11 21 11C26.523 11 31 15.477 31 21C31 26.523 26.523 31 21 31C19.2328 31.0029 17.4967 30.5352 15.97 29.645L11.004 31ZM17.391 16.308C17.2619 16.316 17.1357 16.35 17.02 16.408C16.9115 16.4694 16.8125 16.5462 16.726 16.636C16.606 16.749 16.538 16.847 16.465 16.942C16.0954 17.423 15.8966 18.0134 15.9 18.62C15.902 19.11 16.03 19.587 16.23 20.033C16.639 20.935 17.312 21.89 18.201 22.775C18.415 22.988 18.624 23.202 18.849 23.401C19.9524 24.3725 21.2673 25.073 22.689 25.447L23.258 25.534C23.443 25.544 23.628 25.53 23.814 25.521C24.1053 25.506 24.3896 25.4271 24.647 25.29C24.813 25.202 24.891 25.158 25.03 25.07C25.03 25.07 25.073 25.042 25.155 24.98C25.29 24.88 25.373 24.809 25.485 24.692C25.568 24.606 25.64 24.505 25.695 24.39C25.773 24.227 25.851 23.916 25.883 23.657C25.907 23.459 25.9 23.351 25.897 23.284C25.893 23.177 25.804 23.066 25.707 23.019L25.125 22.758C25.125 22.758 24.255 22.379 23.724 22.137C23.668 22.1126 23.608 22.0987 23.547 22.096C23.4786 22.089 23.4095 22.0967 23.3443 22.1186C23.2791 22.1405 23.2193 22.1761 23.169 22.223V22.221C23.164 22.221 23.097 22.278 22.374 23.154C22.3325 23.2098 22.2754 23.2519 22.2098 23.2751C22.1443 23.2982 22.0733 23.3013 22.006 23.284C21.9409 23.2666 21.877 23.2445 21.815 23.218C21.691 23.166 21.648 23.146 21.563 23.109L21.558 23.107C20.9859 22.8572 20.4562 22.5198 19.988 22.107C19.862 21.997 19.745 21.877 19.625 21.761C19.2316 21.3842 18.8887 20.958 18.605 20.493L18.546 20.398C18.5036 20.3342 18.4694 20.2653 18.444 20.193C18.406 20.046 18.505 19.928 18.505 19.928C18.505 19.928 18.748 19.662 18.861 19.518C18.9551 19.3983 19.0429 19.2738 19.124 19.145C19.242 18.955 19.279 18.76 19.217 18.609C18.937 17.925 18.647 17.244 18.349 16.568C18.29 16.434 18.115 16.338 17.956 16.319C17.902 16.313 17.848 16.307 17.794 16.303C17.6597 16.2963 17.5251 16.2977 17.391 16.307V16.308Z" fill="white"/>
</svg>
