<svg width="466" height="271" viewBox="0 0 466 271" fill="none" xmlns="http://www.w3.org/2000/svg">
<path d="M3.58771 7.08087C4.67542 5.1334 7.06393 3.59327 11.3043 2.81733C15.5168 2.04645 21.2009 2.10456 28.2685 3.02292C42.3833 4.857 61.5243 10.0526 84.3846 18.189C130.074 34.4509 190.26 62.3286 254.087 97.9777C317.914 133.627 373.214 170.251 411.022 200.625C429.938 215.822 444.401 229.395 453.365 240.451C457.853 245.987 460.884 250.796 462.436 254.787C464 258.805 463.941 261.646 462.853 263.594C461.765 265.541 459.377 267.081 455.137 267.857C450.924 268.628 445.24 268.57 438.172 267.652C424.058 265.818 404.917 260.622 382.056 252.485C336.366 236.224 276.181 208.346 212.354 172.697C148.527 137.048 93.227 100.423 55.4191 70.0494C36.5025 54.8522 22.0403 41.2795 13.0763 30.2234C8.58779 24.6873 5.55732 19.8781 4.00444 15.8871C2.44129 11.8697 2.49999 9.02833 3.58771 7.08087Z" stroke="url(#paint0_radial_38_919)" stroke-width="4"/>
<defs>
<radialGradient id="paint0_radial_38_919" cx="0" cy="0" r="1" gradientUnits="userSpaceOnUse" gradientTransform="translate(459.566 269.985) rotate(-149.613) scale(560.232 478.063)">
<stop stop-color="#4F42C9"/>
<stop offset="0.411908" stop-color="#4F42C9" stop-opacity="0"/>
<stop offset="0.617986" stop-color="#4F42C9" stop-opacity="0"/>
<stop offset="1" stop-color="#4F42C9"/>
</radialGradient>
</defs>
</svg>
