<svg width="48" height="48" viewBox="0 0 48 48" fill="none" xmlns="http://www.w3.org/2000/svg">
<path d="M15.8819 35.9999C15.2879 33.4539 12.6079 31.3719 11.5079 29.9999C9.6243 27.6465 8.44382 24.8089 8.10245 21.8139C7.76108 18.8189 8.27272 15.7884 9.57843 13.0714C10.8841 10.3545 12.9308 8.0617 15.4826 6.45712C18.0345 4.85254 20.9877 4.00147 24.0021 4.00195C27.0165 4.00244 29.9694 4.85445 32.5207 6.45984C35.0721 8.06524 37.118 10.3587 38.4228 13.0761C39.7277 15.7934 40.2383 18.8241 39.896 21.819C39.5537 24.8139 38.3723 27.6511 36.4879 30.0039C35.3879 31.3739 32.7119 33.4559 32.1179 35.9999H15.8799H15.8819ZM31.9999 39.9999V41.9999C31.9999 43.0608 31.5785 44.0782 30.8283 44.8284C30.0782 45.5785 29.0608 45.9999 27.9999 45.9999H19.9999C18.9391 45.9999 17.9216 45.5785 17.1715 44.8284C16.4213 44.0782 15.9999 43.0608 15.9999 41.9999V39.9999H31.9999ZM25.9999 20.0099V11.9999L16.9999 24.0099H21.9999V32.0099L30.9999 20.0099H25.9999Z" fill="#7768FF"/>
</svg>
