<svg width="32" height="25" viewBox="0 0 32 25" fill="none" xmlns="http://www.w3.org/2000/svg">
<path d="M3.02025 22.3117C1.21775 20.3972 0.25 18.2499 0.25 14.7692C0.25 8.64419 4.54975 3.15444 10.8025 0.440186L12.3653 2.85169C6.529 6.00869 5.388 10.1054 4.933 12.6884C5.87275 12.2019 7.103 12.0322 8.30875 12.1442C11.4658 12.4364 13.9543 15.0282 13.9543 18.2499C13.9543 19.8744 13.3089 21.4323 12.1603 22.581C11.0116 23.7296 9.4537 24.3749 7.82925 24.3749C5.9515 24.3749 4.156 23.5174 3.02025 22.3117ZM20.5203 22.3117C18.7178 20.3972 17.75 18.2499 17.75 14.7692C17.75 8.64419 22.0498 3.15444 28.3025 0.440186L29.8653 2.85169C24.029 6.00869 22.888 10.1054 22.433 12.6884C23.3728 12.2019 24.603 12.0322 25.8088 12.1442C28.9658 12.4364 31.4543 15.0282 31.4543 18.2499C31.4543 19.8744 30.8089 21.4323 29.6603 22.581C28.5116 23.7296 26.9537 24.3749 25.3293 24.3749C23.4515 24.3749 21.656 23.5174 20.5203 22.3117Z" fill="#4F42C9"/>
</svg>
