<svg width="555" height="86" viewBox="0 0 555 86" fill="none" xmlns="http://www.w3.org/2000/svg">
<rect x="0.5" y="0.5" width="554" height="85" rx="42.5" fill="white"/>
<path opacity="0.65" d="M46.8126 37.552C47.8686 37.552 48.6366 38.08 49.1406 39.088C49.6206 40.096 49.8846 41.704 49.8846 43.864C49.8846 46.048 49.6206 47.632 49.1406 48.64C48.6366 49.648 47.8686 50.152 46.8126 50.152C45.7566 50.152 44.9646 49.648 44.4846 48.64C44.0046 47.632 43.7646 46.048 43.7646 43.888C43.7646 41.704 44.0046 40.096 44.5086 39.088C44.9886 38.08 45.7566 37.552 46.8126 37.552ZM46.8126 35.248C44.8446 35.248 43.3806 35.968 42.3966 37.408C41.4126 38.848 40.9326 40.984 40.9326 43.864C40.9326 46.72 41.4126 48.88 42.3966 50.32C43.3806 51.76 44.8446 52.48 46.8126 52.48C48.7566 52.48 50.2206 51.76 51.2046 50.32C52.2126 48.88 52.6926 46.72 52.6926 43.864C52.6926 41.008 52.2126 38.848 51.2046 37.408C50.2206 35.968 48.7566 35.248 46.8126 35.248ZM60.148 35.224C60.004 36.352 59.572 37.144 58.876 37.624C58.18 38.104 57.1 38.344 55.612 38.344V40.288H59.548V52H62.236V35.224H60.148Z" fill="#4F42C9"/>
<path d="M77 34.744L83 52H85.88L91.856 34.744H88.784L84.44 48.52L80.096 34.744H77ZM93.7085 34.744V52H96.5885V34.744H93.7085ZM103.148 37.192H106.868C108.428 37.192 109.628 37.72 110.444 38.728C111.26 39.736 111.668 41.224 111.668 43.168C111.668 45.328 111.26 46.912 110.444 47.92C109.628 48.952 108.38 49.456 106.676 49.456H103.148V37.192ZM100.316 34.744V52H106.508C109.1 52 111.116 51.256 112.508 49.744C113.9 48.256 114.596 46.096 114.596 43.312C114.596 40.48 113.948 38.344 112.676 36.904C111.404 35.464 109.508 34.744 106.988 34.744H100.316ZM117.472 34.744V52H130.168V49.408H120.304V44.2H129.112V41.776H120.304V37.264H129.856V34.744H117.472ZM140.477 36.784C142.157 36.784 143.453 37.384 144.413 38.536C145.349 39.688 145.829 41.32 145.829 43.384C145.829 45.472 145.349 47.104 144.389 48.256C143.429 49.408 142.133 49.984 140.477 49.984C138.797 49.984 137.477 49.408 136.541 48.232C135.581 47.08 135.125 45.448 135.125 43.384C135.125 41.32 135.581 39.688 136.541 38.536C137.477 37.384 138.797 36.784 140.477 36.784ZM140.477 34.288C137.885 34.288 135.869 35.104 134.405 36.712C132.917 38.344 132.197 40.552 132.197 43.384C132.197 46.216 132.917 48.448 134.405 50.056C135.869 51.688 137.885 52.48 140.477 52.48C143.021 52.48 145.037 51.688 146.525 50.056C148.013 48.424 148.757 46.216 148.757 43.384C148.757 40.576 148.013 38.368 146.525 36.736C145.037 35.104 143.021 34.288 140.477 34.288ZM166.524 40.024C166.26 38.224 165.468 36.808 164.172 35.8C162.876 34.792 161.172 34.288 159.108 34.288C156.612 34.288 154.62 35.128 153.132 36.76C151.644 38.416 150.9 40.624 150.9 43.384C150.9 46.12 151.62 48.304 153.108 49.96C154.596 51.64 156.516 52.456 158.916 52.456C160.068 52.456 161.1 52.24 162.012 51.784C162.924 51.352 163.692 50.68 164.34 49.816L164.82 52H166.716V42.688H159.348V45.064H164.076C164.004 46.552 163.524 47.728 162.636 48.592C161.772 49.456 160.62 49.888 159.204 49.888C157.548 49.888 156.228 49.312 155.268 48.136C154.308 46.96 153.828 45.352 153.828 43.312C153.828 41.248 154.308 39.64 155.268 38.488C156.228 37.336 157.548 36.76 159.276 36.76C160.428 36.76 161.388 37.048 162.156 37.624C162.924 38.2 163.428 39.016 163.644 40.024H166.524ZM172.945 37.168H177.121C178.297 37.168 179.137 37.384 179.641 37.792C180.169 38.2 180.409 38.872 180.409 39.784C180.409 40.744 180.145 41.416 179.617 41.848C179.089 42.28 178.225 42.472 177.025 42.472H172.921L172.945 37.168ZM170.089 34.744V52H172.945V44.896H176.737H177.289C178.249 44.896 178.945 45.088 179.329 45.448C179.737 45.832 179.977 46.552 180.049 47.656L180.145 49.72C180.169 50.392 180.217 50.896 180.289 51.208C180.337 51.52 180.433 51.784 180.577 52H183.793V51.496C183.361 51.256 183.121 50.608 183.073 49.528V49.504L182.929 47.032C182.857 45.928 182.665 45.136 182.353 44.656C182.065 44.176 181.561 43.816 180.841 43.6C181.633 43.288 182.233 42.784 182.665 42.088C183.097 41.392 183.313 40.552 183.313 39.592C183.313 38.104 182.881 36.928 182.017 36.064C181.153 35.2 179.977 34.792 178.441 34.792H178.273C178.009 34.768 177.769 34.768 177.553 34.768L170.089 34.744ZM192.614 37.648L195.182 45.136H190.046L192.614 37.648ZM191.006 34.744L184.742 52H187.742L189.254 47.536H195.974L197.51 52H200.582L194.246 34.744H191.006ZM205.243 37.24H209.131C210.187 37.24 210.955 37.48 211.459 37.912C211.939 38.344 212.203 39.04 212.203 39.976C212.203 40.936 211.939 41.632 211.459 42.064C210.955 42.496 210.115 42.688 208.939 42.688H205.219L205.243 37.24ZM202.339 34.744V52H205.219V45.208H209.131C210.163 45.208 210.979 45.136 211.579 44.992C212.155 44.848 212.683 44.632 213.115 44.296C213.739 43.816 214.243 43.216 214.579 42.496C214.915 41.776 215.083 40.96 215.083 40.048C215.083 38.944 214.867 38.008 214.459 37.192C214.051 36.4 213.451 35.8 212.683 35.368C212.251 35.152 211.795 34.984 211.291 34.888C210.763 34.792 209.995 34.744 208.939 34.744H202.339ZM217.832 34.744V52H220.712V44.104H228.872V52H231.752V34.744H228.872V41.536H220.712V34.744H217.832ZM233.298 34.744L239.659 45.304V52H242.539V45.184L248.467 34.744H245.155L241.075 42.592L236.851 34.744H233.298Z" fill="#4F42C9"/>
<path d="M496 41H510V43H496V41Z" fill="#4F42C9"/>
<rect x="0.5" y="0.5" width="554" height="85" rx="42.5" stroke="#4F42C9"/>
</svg>
